<?xml version="1.0" encoding="iso-8859-1"?>
<!-- Generator: Adobe Illustrator 19.0.0, SVG Export Plug-In . SVG Version: 6.00 Build 0)  -->
<svg version="1.1" id="Capa_1" xmlns="http://www.w3.org/2000/svg" xmlns:xlink="http://www.w3.org/1999/xlink" x="0px" y="0px"
	 viewBox="0 0 375.2 375.2" style="enable-background:new 0 0 375.2 375.2;" xml:space="preserve">
<g>
	<g>
		<path d="M241.736,133.5c-9-8.9-16-19.5-20.5-31.3l-165.5,165.6c-1.8,1.8-4.2,2.8-6.8,2.9c-12.4,0.3-24,5.6-33.7,15.3
			c-10.4,10.4-15.2,22.2-15.2,37.1c0.1,13.8,5.6,27,15.5,36.7c9.6,9.9,22.9,15.4,36.7,15.4c8.7,0,21.2-2.2,31.4-12.4
			c0.7-0.8,1.4-1.4,2-1.9c0.6-0.4,1-0.9,1.5-1.4c0.2-0.3,0.5-0.6,0.8-0.9c10.1-10.2,15-20,15.1-30.8c0-2.6,1.1-5.1,2.9-6.9
			l167.2-167.2C261.336,149.2,250.736,142.3,241.736,133.5z M72.136,342.9c-5.1,6.1-12.7,9.6-20.6,9.5c-7.7,0-15.1-3.1-20.6-8.6
			l-0.1-0.1c-5.4-5.5-8.5-12.9-8.5-20.6c-0.1-7.7,3-15.2,8.6-20.6c5.4-5.4,12.7-8.5,20.4-8.5c7.5,0,14.6,2.9,19.9,8
			C82.736,313.1,83.136,331.4,72.136,342.9z"/>
	</g>
</g>
<g>
	<g>
		<path d="M375.036,65.9l-24.7,26.9c-2.3,2.5-5.8,3.7-9.2,3l-45.2-8.7c-4-0.8-7.2-3.9-7.9-8l-8.3-44.8c-0.7-3.4,0.5-6.8,2.9-9.1
			l26.6-25.1c-1.4-0.1-2.7-0.1-4-0.1c-4.8,0-9.7,0.5-14.4,1.5c-37.8,7.9-62,44.9-54.1,82.6c2.6,13.3,9.3,25.6,19,35.2
			c27.5,27.1,71.7,27.1,99.2,0C368.936,105.1,376.236,85.7,375.036,65.9z"/>
	</g>
</g>
<g>
	<g>
		<path d="M57.636,316.5c-0.1-0.1-0.1-0.1-0.2-0.2c-3.4-3.4-8.9-3.3-12.3,0.2c-1.8,1.7-2.8,4-2.7,6.5c0,2.5,1,4.8,2.7,6.5
			c1.7,1.8,4,2.8,6.5,2.8c2,0.2,4-0.7,5.2-2.3c0.2-0.3,0.5-0.6,0.8-0.9c0.1-0.1,0.2-0.1,0.2-0.3
			C61.136,325.3,61.036,319.8,57.636,316.5z"/>
	</g>
</g>
<g>
</g>
<g>
</g>
<g>
</g>
<g>
</g>
<g>
</g>
<g>
</g>
<g>
</g>
<g>
</g>
<g>
</g>
<g>
</g>
<g>
</g>
<g>
</g>
<g>
</g>
<g>
</g>
<g>
</g>
</svg>
